<?xml version="1.0" encoding="UTF-8"?>
<svg version="1.1" xmlns="http://www.w3.org/2000/svg" width="2532" height="480">
<path d="M0 0 C0.91608536 -0.00979385 1.83217072 -0.01958771 2.77601624 -0.02967834 C22.54262474 -0.19750617 41.83523671 -0.29056611 61.19140625 4.23828125 C62.11695313 4.45258789 63.0425 4.66689453 63.99609375 4.88769531 C87.29424307 10.49197703 108.78688048 20.86111684 127.19140625 36.23828125 C127.96097656 36.87805908 127.96097656 36.87805908 128.74609375 37.53076172 C137.06782231 44.54561983 143.8596815 52.40252572 150.19140625 61.23828125 C150.58956543 61.79354492 150.98772461 62.34880859 151.39794922 62.92089844 C164.12558157 80.99040081 171.78983214 101.43458251 176.44140625 122.92578125 C176.59262939 123.62445313 176.74385254 124.323125 176.8996582 125.04296875 C179.88762188 139.86299864 180.59844303 154.47844488 180.56640625 169.55078125 C180.56559052 170.99869553 180.56559052 170.99869553 180.5647583 172.4758606 C180.44358205 219.39481852 167.55184265 263.04540197 134.890625 297.5703125 C106.38159757 325.74927883 65.06218325 340.12502074 25.3828125 340.4765625 C24.46672714 340.48635635 23.55064178 340.49615021 22.60679626 340.50624084 C2.84018776 340.67406867 -16.45242421 340.76712861 -35.80859375 336.23828125 C-36.73414063 336.02397461 -37.6596875 335.80966797 -38.61328125 335.58886719 C-61.91143057 329.98458547 -83.40406798 319.61544566 -101.80859375 304.23828125 C-102.57816406 303.59850342 -102.57816406 303.59850342 -103.36328125 302.94580078 C-111.68500981 295.93094267 -118.476869 288.07403678 -124.80859375 279.23828125 C-125.20675293 278.68301758 -125.60491211 278.12775391 -126.01513672 277.55566406 C-138.74276907 259.48616169 -146.40701964 239.04197999 -151.05859375 217.55078125 C-151.28542847 216.50277344 -151.28542847 216.50277344 -151.5168457 215.43359375 C-154.50480938 200.61356386 -155.21563053 185.99811762 -155.18359375 170.92578125 C-155.18277802 169.47786697 -155.18277802 169.47786697 -155.1819458 168.0007019 C-155.06076955 121.08174398 -142.16903015 77.43116053 -109.5078125 42.90625 C-80.99878507 14.72728367 -39.67937075 0.35154176 0 0 Z M-41.42578125 97.45703125 C-61.41816608 120.79240502 -64.45328937 154.85488808 -62.28125 184.3046875 C-60.38207452 205.57962684 -55.26392759 226.81176552 -40.80859375 243.23828125 C-40.1640625 243.98851562 -39.51953125 244.73875 -38.85546875 245.51171875 C-27.43642877 257.90349176 -11.42890408 264.36621652 5.28295898 265.36303711 C26.53562412 266.11296626 45.28819436 262.25523421 61.75390625 248.0234375 C82.81192885 228.21734003 87.19360678 199.80837985 88.19140625 172.23828125 C88.47904526 146.014454 84.06560824 117.54987442 66.19140625 97.23828125 C65.546875 96.48804688 64.90234375 95.7378125 64.23828125 94.96484375 C52.81924127 82.57307074 36.81171658 76.11034598 20.09985352 75.11352539 C-3.89429788 74.26685917 -24.3797765 79.71636173 -41.42578125 97.45703125 Z " fill="#FFFFFF" transform="translate(1798.80859375,55.76171875)"/>
<path d="M0 0 C75.57 0 151.14 0 229 0 C229 25.41 229 50.82 229 77 C183.13 77 137.26 77 90 77 C90 93.83 90 110.66 90 128 C128.61 128 167.22 128 207 128 C207 151.1 207 174.2 207 198 C168.39 198 129.78 198 90 198 C90 216.81 90 235.62 90 255 C137.52 255 185.04 255 234 255 C234 280.41 234 305.82 234 332 C156.78 332 79.56 332 0 332 C0 222.44 0 112.88 0 0 Z " fill="#FFFFFF" transform="translate(1142,60)"/>
<path d="M0 0 C75.57 0 151.14 0 229 0 C229 25.41 229 50.82 229 77 C183.13 77 137.26 77 90 77 C90 93.83 90 110.66 90 128 C128.61 128 167.22 128 207 128 C207 151.1 207 174.2 207 198 C168.39 198 129.78 198 90 198 C90 216.81 90 235.62 90 255 C137.52 255 185.04 255 234 255 C234 280.41 234 305.82 234 332 C156.78 332 79.56 332 0 332 C0 222.44 0 112.88 0 0 Z " fill="#FFFFFF" transform="translate(863,60)"/>
<path d="M0 0 C83.82 0 167.64 0 254 0 C254 53 254 53 242 69 C239.86311485 71.93051766 237.73396655 74.86242925 235.625 77.8125 C228.24951496 88.07321654 220.74014081 98.23355465 213.22949219 108.39550781 C206.94498265 116.90093735 200.67980365 125.41808621 194.5 134 C187.15975779 144.19341866 179.69545642 154.29401291 172.22949219 164.39550781 C165.94498265 172.90093735 159.67980365 181.41808621 153.5 190 C146.15975779 200.19341866 138.69545642 210.29401291 131.22949219 220.39550781 C129.46472423 222.78393755 127.70079104 225.17297971 125.9375 227.5625 C125.36475342 228.33859619 124.79200684 229.11469238 124.2019043 229.91430664 C119.50867038 236.28525739 114.86989783 242.6946501 110.26147461 249.12719727 C109.76010986 249.82514404 109.25874512 250.52309082 108.7421875 251.2421875 C108.3076123 251.8491748 107.87303711 252.45616211 107.42529297 253.08154297 C105.6775495 255.43402125 103.83076807 257.71153992 102 260 C178.725 260.495 178.725 260.495 257 261 C257 284.76 257 308.52 257 333 C168.89 333 80.78 333 -10 333 C-10 281 -10 281 11 252.5 C12.15371094 250.93378906 13.30742188 249.36757813 14.49609375 247.75390625 C16.84012017 244.57249389 19.18670882 241.39299384 21.53515625 238.21484375 C27.22964599 230.50460543 32.89882943 222.77836411 38.5 215 C45.84024221 204.80658134 53.30454358 194.70598709 60.77050781 184.60449219 C67.05501735 176.09906265 73.32019635 167.58191379 79.5 159 C86.84024221 148.80658134 94.30454358 138.70598709 101.77050781 128.60449219 C108.59060169 119.37420501 115.37315101 110.12005121 122.0793457 100.80664062 C126.27056911 94.99302888 130.50083506 89.2088837 134.75 83.4375 C135.35908203 82.60927734 135.96816406 81.78105469 136.59570312 80.92773438 C137.15708984 80.16654297 137.71847656 79.40535156 138.296875 78.62109375 C138.79541992 77.9448999 139.29396484 77.26870605 139.80761719 76.57202148 C141 75 141 75 142 74 C95.14 73.67 48.28 73.34 0 73 C0 48.91 0 24.82 0 0 Z " fill="#FFFFFF" transform="translate(561,59)"/>
<path d="M0 0 C29.7 0 59.4 0 90 0 C90 85.14 90 170.28 90 258 C131.91 258 173.82 258 217 258 C217 282.42 217 306.84 217 332 C145.39 332 73.78 332 0 332 C0 222.44 0 112.88 0 0 Z " fill="#FFFFFF" transform="translate(1421,60)"/>
</svg>
